<?xml version="1.0" standalone="no"?>
<!DOCTYPE svg PUBLIC "-//W3C//DTD SVG 20010904//EN"
 "http://www.w3.org/TR/2001/REC-SVG-20010904/DTD/svg10.dtd">
<svg version="1.0" xmlns="http://www.w3.org/2000/svg"
 width="626.000000pt" height="626.000000pt" viewBox="0 0 626.000000 626.000000"
 preserveAspectRatio="xMidYMid meet">
<metadata>
Created by potrace 1.14, written by Peter Selinger 2001-2017
</metadata>
<g transform="translate(0.000000,626.000000) scale(0.100000,-0.100000)"
fill="#000000" stroke="none">
<path d="M3048 5435 c-2 -2 -46 -6 -98 -9 -121 -9 -143 -12 -265 -42 -128 -32
-122 -31 -175 -43 -80 -18 -242 -90 -380 -168 -239 -135 -270 -158 -463 -349
-34 -33 -71 -72 -82 -85 -11 -13 -41 -49 -66 -79 -189 -226 -292 -423 -378
-730 -32 -114 -37 -140 -47 -215 -3 -27 -8 -59 -10 -70 -3 -11 -7 -92 -10
-180 -5 -145 7 -328 31 -445 3 -14 8 -38 11 -54 2 -16 7 -32 9 -36 2 -3 6 -17
9 -31 18 -90 51 -189 96 -284 29 -60 59 -126 68 -145 8 -19 54 -98 101 -175
65 -105 110 -164 182 -240 54 -55 123 -127 155 -161 36 -37 125 -105 229 -174
174 -116 171 -115 505 -245 52 -21 106 -42 120 -48 14 -5 34 -12 45 -14 81
-15 193 -36 210 -39 19 -4 249 -16 310 -17 27 0 91 6 180 17 17 2 59 7 95 11
76 7 310 75 390 112 287 134 336 162 505 288 123 92 273 234 391 371 102 118
192 283 282 519 84 219 91 245 119 460 10 75 10 440 1 520 -9 70 -9 71 -43
195 -14 52 -27 100 -29 105 -1 6 -6 26 -10 45 -28 119 -161 409 -249 540 -156
233 -469 521 -687 630 -186 93 -428 187 -565 218 -114 27 -150 31 -310 37 -71
3 -140 7 -152 9 -13 2 -24 2 -25 1z"/>
<path d="M1814 862 l1 -297 1388 -3 1387 -2 0 295 -1 295 -242 1 c-133 0 -758
2 -1388 4 l-1147 5 2 -298z"/>
</g>
</svg>
